# xmcd CD database file
# Copyright (C) 1997 Ti Kan
#
# Track frame offsets:
#  182
#  14197
#  38807
#  59297
#  80972
#  107520
#  150265
#  170882
#  201355
#  227097
#  265415
#  322752
#  342895
#
# Disc length: 4653 seconds
#
# Revision: 1
# Processed by: cddbd v1.4b41PL1 Copyright (c) Steve Scherf et al.
# Submitted via: CDWizzard Release:4.32
#
DISCID=b3122b0d
DTITLE=Stevie Ray Vaughan - Come On
DYEAR=1900
DGENRE=
TTITLE0=Intro
TTITLE1=Say What
TTITLE2=Looking At Your Window
TTITLE3=Little Sister
TTITLE4=Mary Had a Little Lamb
TTITLE5=Texas Flood
TTITLE6=Superstition
TTITLE7=Willy the Wimp
TTITLE8=Cold Shot
TTITLE9=Couldn't Stand the Weather
TTITLE10=Life Without You
TTITLE11=Come On
TTITLE12=Love Struck Baby
EXTD=
EXTT0=
EXTT1=
EXTT2=
EXTT3=
EXTT4=
EXTT5=
EXTT6=
EXTT7=
EXTT8=
EXTT9=
EXTT10=
EXTT11=
EXTT12=
PLAYORDER=
